# xmcd
#
# Track frame offsets: 
#        150
#        13466
#        28793
#        42490
#        60664
#        75288
#        88031
#        99459
#        114336
#        134626
#        153091
#        167749
#        186833
#        202492
#        214338
#
# Disc length: 3143 seconds
#
# Revision: 2
# Processed by: cddbd v1.5.1PL2 Copyright (c) Steve Scherf et al.
# Submitted via: ExactAudioCopy v0.90b4
#
DISCID=d40c450f
DTITLE=Johnny Lee - Live at Billy Bob's Texas
DYEAR=2002
DGENRE=Country
TTITLE0=Hello Texas
TTITLE1=One In a Million
TTITLE2=It Sounds Like Love
TTITLE3=Lookin' for Love
TTITLE4=Prisoner of Hope
TTITLE5=Yellow Rose of Texas
TTITLE6=Pickin' Up Strangers
TTITLE7=If You Drive Your Husband To Drinkin'
TTITLE8=The Last Thing I Needed (The First Thing This Morning)
TTITLE9=Cherokee Fiddle
TTITLE10=You Could've Heard a Heart Break
TTITLE11=Bet Your Heart On Me
TTITLE12=Rollin Lonely
TTITLE13=Be There for Me Baby
TTITLE14=Hey! Bartender
EXTD=
EXTT0=
EXTT1=
EXTT2=
EXTT3=
EXTT4=
EXTT5=
EXTT6=
EXTT7=
EXTT8=
EXTT9=
EXTT10=
EXTT11=
EXTT12=
EXTT13=
EXTT14=
PLAYORDER=
